<?xml version="1.0" encoding="utf-8"?>
<!-- Generator: Adobe Illustrator 27.0.1, SVG Export Plug-In . SVG Version: 6.00 Build 0)  -->
<svg version="1.1" id="Layer_1" xmlns="http://www.w3.org/2000/svg" xmlns:xlink="http://www.w3.org/1999/xlink" x="0px" y="0px"
	 viewBox="0 0 342 288" style="enable-background:new 0 0 342 288;" xml:space="preserve">
<style type="text/css">
	.st0{fill:#C69E73;}
</style>
<g transform="translate(-341 -1761)">
	<g transform="translate(438.214 1820.616)">
		<path class="st0" d="M73.8,21.9c-6,0-10.9,4.9-10.9,10.9s4.9,10.9,10.9,10.9s10.9-4.9,10.9-10.9C84.7,26.8,79.8,21.9,73.8,21.9z
			 M73.8,38.3c-3,0-5.5-2.4-5.5-5.5c0-3,2.4-5.5,5.5-5.5c3,0,5.5,2.4,5.5,5.5C79.2,35.8,76.8,38.3,73.8,38.3z"/>
		<path class="st0" d="M106.3,80.1l7.5,7.5c3.3,3.3,8.7,3.3,12.1,0c1.6-1.6,2.5-3.8,2.5-6c0-2.3-0.9-4.4-2.5-6l-7.5-7.5
			c-2.8-2.8-7.1-3.3-10.5-1.2l-6-4H87.8l4.1-8.2h17.4c3,0,5.5-2.4,5.5-5.5V13.7c0-3-2.4-5.5-5.5-5.5H91.6L86.2,0H61.4l-5.5,8.2H38.3
			c-3,0-5.5,2.4-5.5,5.5v35.5c0,3,2.4,5.5,5.5,5.5h17.4l4.4,8.8v7.6h-5.5v13.1l-34.9,75.1c-1.7,3.6-0.1,7.9,3.5,9.6
			c1,0.4,2,0.7,3,0.7h0.8c2.9,0,5.5-1.7,6.6-4.3L48,132.3l17.6,8.8v20.2c0,4.5,3.7,8.2,8.2,8.2c4.5,0,8.2-3.7,8.2-8.2l0,0v-20.2
			l17.6-8.8l14.2,32.8c1.1,2.6,3.7,4.3,6.6,4.3h0.8c4,0,7.2-3.2,7.2-7.2c0-1-0.2-2.1-0.7-3L92.9,84.1V71.1h-5.5v-2.7h12.8l4.1,2.8
			c-0.4,1-0.6,2-0.6,3C103.9,76.4,104.8,78.5,106.3,80.1z M57.4,32.8c0-9.1,7.3-16.4,16.4-16.4s16.4,7.3,16.4,16.4
			s-7.3,16.4-16.4,16.4C64.7,49.2,57.4,41.8,57.4,32.8z M38.3,13.7h20.6l5.5-8.2h18.9l5.5,8.2h20.6v35.5H88.2c9.1-8,10-21.8,2-30.9
			s-21.8-10-30.9-2s-10,21.8-2,30.9c0.6,0.7,1.3,1.4,2,2H38.3V13.7z M85.8,54.7L83,60.1H64.5l-2.7-5.5L85.8,54.7z M65.6,65.6h5.5
			v5.5h-5.5V65.6z M60.1,76.5h27.3V82H60.1V76.5z M28.7,162.9c-0.3,0.6-0.9,1.1-1.6,1.1h-0.8c-1,0-1.7-0.8-1.7-1.7
			c0-0.3,0.1-0.5,0.2-0.7l34.4-74h2.3L28.7,162.9z M50.1,127.2l15.4-35.6V135L50.1,127.2z M73.8,164c-1.5,0-2.7-1.2-2.7-2.7V87.4
			h5.5v73.8C76.5,162.7,75.3,164,73.8,164L73.8,164z M82,135V91.6l15.4,35.6L82,135z M123,162.2c0,1-0.8,1.7-1.7,1.7h-0.8
			c-0.7,0-1.3-0.4-1.6-1.1L86.2,87.5h2.3l34.4,74C122.9,161.7,123,162,123,162.2L123,162.2z M76.5,71.1v-5.5H82v5.5H76.5z M114.5,72
			l7.5,7.5c1.2,1.2,1.2,3.1,0,4.3c-0.6,0.6-1.4,0.9-2.2,0.9c-0.8,0-1.6-0.3-2.2-0.9l-7.5-7.5c-1.2-1.2-1.2-3.1,0-4.3
			c0.6-0.6,1.4-0.9,2.2-0.9C113.2,71.1,114,71.4,114.5,72L114.5,72z"/>
		<path class="st0" d="M98.4,38.3h5.5v5.5h-5.5V38.3z"/>
		<path class="st0" d="M43.7,38.3h5.5v5.5h-5.5V38.3z"/>
		<path class="st0" d="M21.4,47.1l3.9-3.9l-5-5h7.1v-5.5h-7.1l5-5l-3.9-3.9l-5,5v-7.1h-5.5v7.1l-5-5l-3.9,3.9l5,5H0v5.5h7.1l-5,5
			l3.9,3.9l5-5v7.1h5.5v-7.1L21.4,47.1z M15.9,41h-4.5l-3.2-3.2v-4.5l3.2-3.2h4.5l3.2,3.2v4.5L15.9,41z"/>
		<path class="st0" d="M147.6,49.2h-7.1l5-5l-3.9-3.9l-5,5v-7.1h-5.5v7.1l-5-5l-3.9,3.9l5,5h-7.1v5.5h7.1l-5,5l3.9,3.9l5-5v7.1h5.5
			v-7.1l5,5l3.9-3.9l-5-5h7.1L147.6,49.2z M139.4,49.7v4.5l-3.2,3.2h-4.5l-3.2-3.2v-4.5l3.2-3.2h4.5L139.4,49.7z"/>
	</g>
</g>
</svg>
