<svg clip-rule="evenodd" fill-rule="evenodd" stroke-linejoin="round" stroke-miterlimit="2" viewBox="0 0 800 800" xmlns="http://www.w3.org/2000/svg"><path d="m-6 0h851v816h-851z" fill="#fbfbfa"/><g fill="#bfa57e" fill-rule="nonzero"><path d="m446.832 503.32v-283.48c.625-89.637-60.652-167.86-147.828-188.711.156-1.684.301-3.36.301-5.098 0-14.375-11.657-26.031-26.035-26.031-4.043 0-8.028.941-11.645 2.75l-5.711 2.871-5.707-2.851c-12.859-6.434-28.5-1.223-34.93 11.636-1.808 3.61-2.75 7.59-2.75 11.629 0 1.734.145 3.383.301 5.059-86.543 19.965-147.847 97.035-147.828 185.855v286.375c0 4.793 3.887 8.675 8.68 8.675h104.133c4.793 0 8.679-3.882 8.679-8.675v-2.899c-.035-84.906-22.191-168.336-64.285-242.074l-5.137-8.988v-3.082c75.903-18.754 131.453-83.738 138.168-161.637.235 0 .453.114.68.114.223 0 .441-.098.676-.114 6.726 77.895 62.273 142.871 138.171 161.637v3.082l-5.14 8.988c-42.094 73.738-64.25 157.168-64.285 242.074v2.899c0 4.793 3.886 8.675 8.679 8.675h104.137c4.789 0 8.676-3.886 8.676-8.679zm-52.07-8.676h-52.067c.996-72.73 18.82-144.246 52.067-208.941zm-225.625 0h-52.07v-208.941c33.25 64.695 51.074 136.211 52.07 208.941zm-69.426-277.695v277.695h-17.355v-277.695c-.012-80.859 55.871-150.984 134.691-169.023 2.398 5.726 5.719 11.019 9.824 15.675-73.711 13.95-127.097 78.329-127.16 153.348zm17.356 11.465v-11.465c.062-69.758 51.871-128.641 121.05-137.582-4.379 70.434-53.011 130.312-121.05 149.047zm149.167-170.957-7.082 5.309c-.246.14-.488.296-.718.46-.043.043-.055.106-.098.157l-2.422 1.847-2.488-1.863c-.156-.168-.375-.262-.539-.41l-7.289-5.465c-9.875-7.449-15.692-19.09-15.715-31.461-.024-3.008 1.539-5.812 4.113-7.375 1.375-.84 2.953-1.289 4.563-1.301 1.343.004 2.668.325 3.863.938l9.598 4.797c2.441 1.222 5.316 1.222 7.757 0l9.598-4.797c4.281-2.152 9.5-.426 11.652 3.855.606 1.207.922 2.536.922 3.883-.023 12.371-5.84 24.012-15.715 31.461zm128.528 170.957c-68.028-18.746-116.653-78.617-121.047-149.047 69.179 8.941 120.988 67.824 121.047 137.582zm34.714 266.23h-17.355v-277.695c-.063-75.019-53.449-139.398-127.16-153.348 4.098-4.64 7.414-9.917 9.816-15.621 79.453 18.911 135.317 90.188 134.699 171.86z" transform="translate(144.079 144)"/><path d="m299.305 433.898c4.793 0 8.679-3.887 8.679-8.68v-34.711c0-4.793-3.886-8.675-8.679-8.675h-86.778c-4.793 0-8.679 3.882-8.679 8.675v34.711c0 4.793 3.886 8.68 8.679 8.68h34.711v60.746h-26.035c-4.793 0-8.676 3.883-8.676 8.676s3.883 8.679 8.676 8.679h69.426c4.793 0 8.676-3.886 8.676-8.679s-3.883-8.676-8.676-8.676h-26.035v-60.746zm-78.102-17.356v-17.355h69.426v17.355z" transform="translate(144.082 133)"/></g></svg>