<svg clip-rule="evenodd" fill-rule="evenodd" stroke-linejoin="round" stroke-miterlimit="2" viewBox="0 0 800 800" xmlns="http://www.w3.org/2000/svg"><path d="m-6 0h851v816h-851z" fill="#fbfbfa"/><g fill="#bfa57e" fill-rule="nonzero" transform="translate(145 144.098)"><path d="m24.047 135.66c0 12.977 10.558 23.531 23.531 23.531 12.977 0 23.535-10.554 23.535-23.531 0-12.976-10.558-23.531-23.535-23.531-12.973 0-23.531 10.555-23.531 23.531zm32.066 0c0 4.707-3.828 8.531-8.531 8.531s-8.531-3.828-8.531-8.531 3.828-8.531 8.531-8.531 8.531 3.828 8.531 8.531z"/><path d="m95.16 63.516c0-8.555-6.961-15.516-15.515-15.516h-64.129c-8.555 0-15.516 6.961-15.516 15.516v384.773c0 8.559 6.961 15.516 15.516 15.516h64.129c8.554 0 15.515-6.957 15.515-15.516zm-80.16 176.222c7.66-10.312 19.68-16.414 32.582-16.414s24.922 6.102 32.578 16.414v48.364c-7.656 10.312-19.676 16.414-32.578 16.414s-24.922-6.102-32.582-16.414zm32.582-31.418c-11.894 0-23.234 3.793-32.582 10.571v-38.2c9.348 6.774 20.688 10.567 32.582 10.567 11.895 0 23.234-3.793 32.578-10.567v38.2c-9.344-6.778-20.683-10.571-32.578-10.571zm-32.582 100.629c9.348 6.774 20.688 10.567 32.582 10.567 11.895 0 23.234-3.793 32.578-10.567v27.629h-65.16zm.516-245.949h64.129c.285 0 .515.23.515.516v96.328c-7.656 10.312-19.676 16.414-32.582 16.414-12.902 0-24.918-6.102-32.578-16.414v-48.364c7.66-10.312 19.68-16.414 32.582-16.414 2.273 0 4.551.188 6.773.563 4.083.683 7.954-2.07 8.637-6.156.688-4.082-2.066-7.953-6.152-8.637-3.039-.512-6.156-.77-9.262-.77-11.894 0-23.234 3.789-32.578 10.567v-27.117c0-.286.23-.516.516-.516zm64.129 385.805h-64.129c-.286 0-.516-.231-.516-.516v-96.711h65.16v96.711c0 .285-.23.516-.515.516z"/><path d="m47.582 287.449c12.977 0 23.531-10.554 23.531-23.531 0-12.973-10.558-23.531-23.531-23.531-12.977 0-23.531 10.558-23.531 23.531 0 12.977 10.554 23.531 23.531 23.531zm0-32.062c4.703 0 8.531 3.828 8.531 8.531s-3.828 8.531-8.531 8.531-8.531-3.828-8.531-8.531 3.824-8.531 8.531-8.531z"/><path d="m464.418 112.129c-12.977 0-23.531 10.559-23.531 23.531 0 12.977 10.558 23.535 23.531 23.535 12.977 0 23.531-10.558 23.531-23.535.004-12.976-10.554-23.531-23.531-23.531zm0 32.066c-4.703 0-8.531-3.828-8.531-8.535 0-4.703 3.828-8.531 8.531-8.531s8.531 3.828 8.531 8.531c.004 4.707-3.824 8.535-8.531 8.535z"/><path d="m512 63.516c0-8.555-6.961-15.516-15.516-15.516h-64.129c-8.554 0-15.515 6.961-15.515 15.516v384.773c0 8.559 6.961 15.516 15.515 15.516h64.129c8.555 0 15.516-6.957 15.516-15.516zm-15 224.586c-7.66 10.312-19.68 16.414-32.582 16.414s-24.922-6.102-32.578-16.414v-48.364c7.656-10.312 19.676-16.414 32.578-16.414 2.277 0 4.559.188 6.777.563 4.09.687 7.957-2.067 8.645-6.153.687-4.086-2.07-7.953-6.153-8.64-3.042-.512-6.16-.77-9.269-.77-11.895 0-23.234 3.789-32.578 10.567v-38.2c9.344 6.778 20.683 10.567 32.578 10.567s23.234-3.789 32.582-10.567zm0-128.258c-7.66 10.312-19.68 16.414-32.582 16.414s-24.922-6.102-32.578-16.414v-48.364c7.656-10.312 19.676-16.414 32.578-16.414s24.922 6.102 32.582 16.414zm-65.16 149.105c9.344 6.774 20.683 10.567 32.582 10.567 11.894 0 23.234-3.793 32.578-10.567v27.629h-65.16zm.515-245.949h64.129c.286 0 .516.23.516.516v27.117c-9.348-6.778-20.687-10.571-32.582-10.571s-23.234 3.793-32.578 10.571v-27.117c0-.286.23-.516.515-.516zm64.129 385.805h-64.129c-.285 0-.515-.231-.515-.516v-96.711h65.16v96.711c0 .285-.23.516-.516.516z"/><path d="m440.887 263.918c0 12.977 10.558 23.531 23.531 23.531 12.977 0 23.531-10.554 23.531-23.531 0-12.973-10.554-23.531-23.531-23.531-12.973 0-23.531 10.558-23.531 23.531zm32.066 0c0 4.707-3.828 8.531-8.531 8.531-4.707 0-8.535-3.828-8.535-8.531s3.828-8.531 8.535-8.531c4.703 0 8.531 3.828 8.531 8.531z"/><path d="m55.598 368.645h-16.035c-4.141 0-7.5 3.359-7.5 7.5 0 4.14 3.359 7.5 7.5 7.5h16.035c4.14 0 7.5-3.36 7.5-7.5 0-4.141-3.36-7.5-7.5-7.5z"/><path d="m472.438 368.645h-16.036c-4.14 0-7.5 3.359-7.5 7.5 0 4.14 3.36 7.5 7.5 7.5h16.036c4.14 0 7.5-3.36 7.5-7.5 0-4.141-3.36-7.5-7.5-7.5z"/><path d="m368.227 336.578h-8.012c-4.145 0-7.5 3.36-7.5 7.5 0 4.145 3.355 7.5 7.5 7.5h8.012c.285 0 .515.235.515.52v96.191c0 .285-.23.516-.515.516h-224.454c-.285 0-.515-.231-.515-.516v-96.191c0-.286.23-.52.515-.52h184.372c4.14 0 7.5-3.355 7.5-7.5 0-4.141-3.36-7.5-7.5-7.5h-184.372c-8.554 0-15.515 6.961-15.515 15.52v96.191c0 8.559 6.961 15.516 15.515 15.516h224.454c8.554 0 15.515-6.957 15.515-15.516v-96.191c0-8.559-6.961-15.52-15.515-15.52z"/><path d="m160.324 376.145c0 4.14 3.356 7.5 7.5 7.5h176.352c4.144 0 7.5-3.36 7.5-7.5 0-4.141-3.356-7.5-7.5-7.5h-176.352c-4.144 0-7.5 3.359-7.5 7.5z"/><path d="m232.469 416.227c0 12.976 10.554 23.531 23.531 23.531s23.531-10.559 23.531-23.531c0-12.977-10.554-23.532-23.531-23.532s-23.531 10.555-23.531 23.532zm32.062 0c0 4.703-3.828 8.531-8.531 8.531s-8.531-3.828-8.531-8.531c0-4.704 3.828-8.532 8.531-8.532s8.531 3.825 8.531 8.532z"/><path d="m296.598 408.211v16.031c0 4.141 3.355 7.5 7.5 7.5 4.14 0 7.5-3.359 7.5-7.5v-16.031c0-4.145-3.36-7.5-7.5-7.5-4.145 0-7.5 3.355-7.5 7.5z"/><path d="m328.66 408.211v16.031c0 4.141 3.36 7.5 7.5 7.5 4.145 0 7.5-3.359 7.5-7.5v-16.031c0-4.145-3.355-7.5-7.5-7.5-4.14 0-7.5 3.355-7.5 7.5z"/><path d="m168.34 408.211v16.031c0 4.141 3.355 7.5 7.5 7.5 4.14 0 7.5-3.359 7.5-7.5v-16.031c0-4.145-3.36-7.5-7.5-7.5-4.145 0-7.5 3.355-7.5 7.5z"/><path d="m200.402 408.211v16.031c0 4.141 3.36 7.5 7.5 7.5 4.145 0 7.5-3.359 7.5-7.5v-16.031c0-4.145-3.355-7.5-7.5-7.5-4.14 0-7.5 3.355-7.5 7.5z"/></g></svg>