<?xml version="1.0" standalone="no"?>
<!DOCTYPE svg PUBLIC "-//W3C//DTD SVG 20010904//EN"
 "http://www.w3.org/TR/2001/REC-SVG-20010904/DTD/svg10.dtd">
<svg version="1.0" xmlns="http://www.w3.org/2000/svg"
 width="2314.000000pt" height="2523.000000pt" viewBox="0 0 2314.000000 2523.000000"
 preserveAspectRatio="xMidYMid meet">

<g transform="translate(0.000000,2523.000000) scale(0.100000,-0.100000)"
fill="#000000" stroke="none">
<path d="M12850 25221 c-29 -7 -85 -111 -119 -221 -49 -154 -58 -394 -21 -531
l20 -74 -62 -59 c-174 -162 -495 -396 -738 -535 -131 -76 -429 -225 -436 -219
-2 2 15 28 37 58 130 173 196 443 133 548 -21 36 -68 62 -111 62 -88 0 -251
-132 -363 -294 l-55 -78 -7 73 c-31 300 -187 488 -313 377 -73 -63 -111 -178
-122 -366 l-6 -114 -25 34 c-14 18 -52 59 -84 90 -223 217 -465 283 -524 143
-48 -116 40 -335 217 -536 l58 -66 -109 -6 c-182 -11 -313 -45 -413 -109 -66
-42 -91 -81 -93 -143 l-2 -50 -59 -8 c-123 -16 -456 -80 -648 -123 -1058 -237
-2098 -654 -3020 -1212 -382 -231 -1007 -674 -1013 -719 -2 -14 -43 -52 -120
-109 -763 -571 -1433 -1256 -2052 -2099 -992 -1350 -1673 -2955 -1950 -4599
-58 -346 -100 -673 -115 -896 -4 -52 -8 -105 -10 -117 -19 -124 -28 -1075 -12
-1358 7 -135 32 -442 43 -535 3 -25 7 -61 9 -80 108 -919 259 -1604 540 -2446
88 -265 235 -667 242 -661 2 3 -22 83 -52 178 -238 737 -423 1518 -524 2209
-23 153 -67 520 -75 625 -21 257 -26 321 -32 409 -19 293 -25 1018 -10 1236 3
41 8 118 11 170 106 1723 626 3440 1500 4955 668 1158 1493 2152 2457 2963 80
67 153 122 162 122 9 0 96 60 194 133 1285 967 2780 1611 4347 1874 l220 37
53 -37 c86 -59 208 -95 376 -113 l68 -7 -33 -25 c-110 -82 -199 -209 -199
-283 0 -44 34 -90 80 -109 70 -29 273 4 389 64 18 10 35 15 37 13 3 -3 -3 -33
-12 -68 -11 -41 -18 -101 -18 -164 -1 -85 3 -106 22 -142 37 -70 99 -90 170
-54 78 40 186 177 258 328 l36 75 19 -51 c66 -190 238 -370 352 -371 80 0 122
65 120 185 -1 69 -33 224 -58 288 -5 12 19 1 78 -34 162 -96 337 -136 417 -94
70 36 76 127 18 238 -41 78 -168 211 -260 274 l-71 48 80 9 c77 8 85 7 218
-33 386 -116 783 -292 1152 -511 101 -59 145 -91 152 -109 6 -14 45 -120 87
-236 86 -236 133 -336 194 -415 51 -65 205 -224 275 -283 52 -45 52 -43 -5 43
-73 109 -132 252 -144 350 -15 116 -51 209 -126 320 -20 30 -40 62 -45 70 -11
18 175 -124 300 -229 138 -116 343 -310 419 -395 l69 -76 -31 -68 c-53 -117
-74 -198 -97 -366 -27 -200 -11 -480 30 -526 22 -24 63 -25 91 -2 51 43 134
179 134 222 0 33 14 23 54 -40 48 -75 79 -100 122 -100 23 0 38 7 53 27 26 32
52 119 54 179 1 24 4 44 6 44 2 0 32 -14 67 -31 84 -42 144 -49 173 -20 37 37
37 68 2 169 -19 51 -31 95 -29 97 2 2 25 -2 50 -10 116 -35 246 -27 269 16 22
41 2 86 -74 166 -132 139 -286 235 -457 283 -96 27 -275 36 -344 18 l-48 -14
-157 156 c-591 589 -1304 1026 -2086 1279 -71 24 -137 45 -145 48 -8 3 9 12
40 22 82 26 178 80 210 119 l28 35 114 -7 c486 -29 844 -69 1281 -142 301 -50
790 -156 855 -184 123 -54 342 -248 409 -361 l32 -54 -16 -65 c-23 -96 -24
-307 -1 -342 16 -24 21 -26 46 -17 16 5 50 34 76 64 26 30 55 55 64 55 10 0
41 -16 69 -35 65 -44 93 -46 94 -7 2 54 -3 88 -24 142 -27 74 -119 166 -207
207 -56 26 -72 40 -105 90 -46 69 -161 191 -228 240 -26 20 -46 37 -45 39 12
11 466 -127 801 -244 l187 -65 1 -51 c0 -28 2 -58 3 -66 2 -8 7 -46 11 -85 18
-180 86 -469 148 -631 92 -239 248 -484 386 -603 164 -142 267 -199 671 -371
155 -66 295 -127 311 -136 16 -8 29 -10 29 -5 0 6 -22 52 -49 103 -27 51 -89
181 -137 288 -219 488 -381 730 -685 1025 -110 107 -329 293 -474 405 -126 96
-131 97 154 -21 624 -259 1231 -586 1846 -994 416 -275 869 -619 931 -706 85
-119 144 -303 144 -451 0 -47 -1 -48 -108 -155 -117 -117 -176 -208 -155 -242
11 -16 79 -21 167 -11 46 6 55 -5 81 -103 14 -50 19 -58 38 -55 26 4 70 66 94
133 27 79 23 196 -10 268 -14 32 -35 70 -45 85 -15 20 -21 53 -25 132 -7 113
-24 191 -62 276 -22 50 -22 53 -5 41 39 -27 370 -329 524 -479 l159 -154 -52
-108 c-259 -533 -356 -1138 -260 -1616 48 -238 171 -481 353 -695 77 -91 618
-654 624 -649 2 1 -1 53 -7 116 -6 62 -13 309 -16 548 -3 239 -8 462 -11 495
-45 499 -138 843 -414 1530 -51 127 -94 235 -97 242 -6 16 137 -133 267 -277
591 -658 1142 -1460 1561 -2276 107 -208 120 -238 130 -310 21 -148 -1 -360
-54 -520 l-23 -69 -95 -48 c-150 -77 -249 -162 -249 -214 0 -28 45 -43 126
-43 71 0 84 -11 84 -73 0 -112 32 -126 104 -47 60 68 88 143 88 240 1 41 -5
94 -11 117 -10 37 -8 51 19 132 37 110 60 254 60 381 l0 95 51 -110 c109 -238
217 -501 321 -785 47 -129 49 -139 48 -230 -1 -52 -3 -109 -5 -126 -21 -225
-25 -828 -6 -999 38 -340 95 -513 324 -985 113 -232 172 -385 237 -609 15 -50
25 -70 30 -60 24 44 193 572 214 669 99 454 78 842 -68 1242 -66 182 -117 284
-225 456 -115 183 -190 280 -342 437 -65 68 -100 113 -109 140 -7 22 -43 121
-80 220 -194 516 -430 1017 -731 1550 l-33 60 29 -22 c105 -75 424 -424 685
-748 143 -178 380 -413 590 -587 269 -222 440 -415 541 -611 l46 -90 6 39 c7
50 1 558 -7 604 -48 262 -121 470 -229 652 -231 391 -605 662 -1048 759 -89
20 -134 23 -304 24 -110 0 -225 -4 -256 -8 l-55 -8 -99 163 c-120 199 -349
548 -473 721 -51 71 -89 127 -85 125 5 -2 51 -24 103 -49 52 -26 118 -54 146
-63 40 -13 58 -26 84 -62 72 -100 247 -173 321 -134 28 16 24 30 -26 94 -25
32 -45 62 -45 66 0 3 16 27 36 53 51 65 44 81 -35 85 -69 3 -130 -13 -221 -58
l-55 -28 -79 29 c-107 39 -263 126 -303 169 -18 19 -104 125 -191 235 -593
746 -1347 1471 -2112 2031 -103 76 -551 378 -696 471 -16 10 -4 12 63 12 164
2 528 -60 877 -148 194 -50 500 -105 636 -116 397 -31 499 -47 685 -107 55
-18 152 -58 215 -90 63 -31 115 -56 116 -55 4 4 -145 243 -203 324 -142 199
-282 335 -486 470 -116 76 -208 120 -349 168 -178 59 -292 78 -468 78 -186 -1
-297 -18 -465 -74 -214 -71 -378 -174 -551 -344 l-101 -100 -89 54 c-191 115
-518 296 -730 403 -123 62 -219 114 -215 116 5 1 35 -2 67 -7 32 -6 136 -9
229 -7 l170 4 75 -37 c72 -34 80 -36 180 -36 93 0 111 3 155 26 39 20 50 30
50 50 0 20 -13 31 -75 64 -84 45 -81 38 -64 163 l7 52 -32 0 c-68 0 -183 -84
-279 -205 l-32 -40 -188 0 c-158 0 -203 4 -288 23 -132 29 -261 74 -464 160
-574 242 -1245 455 -1872 593 -261 57 -732 141 -871 155 -37 4 -70 10 -72 14
-5 8 86 35 220 65 38 9 218 43 399 76 397 72 471 90 702 173 383 137 511 167
722 168 79 0 142 2 140 4 -2 1 -55 37 -118 79 -197 131 -439 238 -640 281 -67
15 -129 19 -295 19 -188 0 -220 -3 -305 -24 -261 -65 -470 -180 -646 -356
-111 -110 -200 -236 -269 -379 l-45 -92 -118 12 c-138 15 -327 31 -467 40 -55
4 -111 8 -125 9 -14 2 -53 3 -87 4 -48 1 -63 5 -63 15 0 13 45 30 195 73 53
15 220 92 302 140 l93 53 93 0 c157 0 268 41 352 131 80 86 58 119 -78 119
-93 0 -112 13 -121 79 -11 83 -24 111 -54 111 -33 0 -93 -63 -132 -139 -25
-50 -36 -61 -77 -79 -91 -39 -134 -45 -338 -47 -165 -1 -213 -5 -273 -22 -40
-11 -69 -17 -65 -13 4 4 46 30 93 60 181 113 382 265 565 427 l89 80 51 -23
c93 -43 179 -58 330 -57 167 0 250 19 395 89 114 55 155 85 164 119 16 62 -37
92 -191 109 l-102 11 51 67 c59 80 68 128 29 159 -29 24 -103 25 -184 4 -32
-8 -59 -15 -61 -15 -2 0 0 18 4 41 9 49 4 122 -10 149 -29 55 -92 49 -175 -15
-54 -42 -84 -57 -70 -35 8 12 -22 124 -45 169 -30 60 -65 82 -110 72z m50 -53
c31 -34 62 -127 63 -190 0 -54 -2 -59 -49 -111 -60 -65 -126 -174 -158 -259
l-23 -62 -5 40 c-17 137 18 361 77 495 52 119 59 125 95 87z m311 -155 c19
-22 16 -140 -4 -180 -9 -17 -47 -54 -84 -84 -101 -79 -293 -249 -293 -259 0
-8 -51 -40 -64 -40 -3 0 -3 19 0 42 23 163 158 361 332 491 69 50 92 57 113
30z m266 -195 c14 -23 2 -51 -57 -128 -93 -122 -216 -209 -363 -255 -81 -26
-203 -40 -225 -26 -41 25 369 372 482 407 54 17 152 18 163 2z m94 -248 c150
-28 144 -58 -30 -145 -142 -71 -218 -88 -391 -89 -100 0 -159 4 -190 14 -43
14 -44 14 -15 18 111 13 269 79 365 153 73 57 146 70 261 49z m-2628 -300 c98
-86 156 -378 112 -565 -15 -63 -21 -75 -34 -68 -9 4 -63 8 -121 9 l-105 1 -19
59 c-27 81 -28 318 -2 413 30 110 76 181 118 181 9 0 33 -13 51 -30z m656 -99
c86 -86 -32 -434 -197 -582 -28 -26 -75 -62 -104 -82 l-53 -35 -45 47 c-25 26
-56 55 -70 64 -24 16 -24 18 -11 79 7 35 23 86 36 114 65 145 236 342 336 389
65 30 83 31 108 6z m2951 -50 c129 -27 260 -76 410 -152 109 -55 201 -108 190
-109 -3 0 -46 9 -95 20 -308 67 -614 73 -934 19 -367 -61 -734 -228 -982 -445
-95 -83 -95 -83 -54 -9 98 179 232 337 380 447 151 112 376 208 570 242 120
22 381 15 515 -13z m-4270 -14 c171 -71 360 -261 430 -431 l24 -59 -25 -16
c-31 -20 -133 -120 -146 -145 -10 -18 -13 -17 -64 10 -109 59 -251 216 -328
364 -122 233 -75 353 109 277z m4415 -212 c140 -10 192 -17 307 -39 l113 -23
-50 -7 c-198 -28 -310 -57 -605 -162 -266 -93 -349 -115 -660 -169 -317 -56
-536 -101 -642 -134 -54 -16 -98 -27 -98 -25 0 10 182 160 257 212 302 206
733 342 1112 351 47 1 88 4 90 7 2 2 25 2 50 -1 25 -2 82 -7 126 -10z m-1984
-121 c-19 -75 -22 -77 -191 -163 -100 -51 -213 -94 -342 -130 l-77 -22 -42 31
c-80 57 -278 98 -419 85 l-65 -6 115 57 115 57 138 -18 c192 -25 380 -17 492
19 74 24 230 107 265 141 26 26 28 16 11 -51z m-156 7 c-120 -67 -181 -83
-346 -89 -92 -3 -178 0 -235 8 l-89 13 35 15 c52 21 186 59 256 71 33 6 138
10 232 9 94 -1 175 1 179 5 3 4 13 7 22 7 9 0 -15 -18 -54 -39z m-1505 -220
c218 -111 258 -394 77 -556 -163 -148 -426 -96 -524 103 -24 50 -28 69 -28
147 0 78 4 97 28 147 34 70 109 140 180 168 72 28 202 24 267 -9z m735 -51
c165 -19 285 -77 285 -138 0 -101 -335 -214 -542 -183 -40 7 -108 21 -150 32
l-78 21 0 37 c0 20 -4 51 -9 69 -9 29 -7 34 22 56 93 69 186 98 367 114 8 1
56 -3 105 -8z m-1416 -70 c35 -6 85 -22 112 -35 47 -24 48 -26 41 -58 -9 -43
-9 -153 1 -198 l9 -37 -48 -16 c-169 -57 -431 -38 -601 45 -148 71 -147 158 2
229 134 64 338 93 484 70z m1106 -346 c189 -64 425 -306 425 -435 0 -38 -36
-59 -97 -59 -169 1 -424 165 -545 351 l-37 56 32 62 32 62 60 -6 c33 -4 91
-18 130 -31z m-792 -165 l40 -29 -69 -67 c-110 -107 -300 -192 -449 -201 -71
-4 -83 -2 -107 18 -33 25 -34 41 -8 98 26 57 106 140 196 202 58 40 92 56 155
71 45 11 89 23 98 28 12 8 26 -1 60 -41 25 -28 63 -64 84 -79z m532 -31 c137
-156 241 -555 159 -615 -22 -16 -27 -16 -69 1 -54 23 -101 63 -151 130 -94
124 -134 237 -134 378 l0 78 59 30 c33 16 62 34 66 40 11 18 23 11 70 -42z
m-337 -35 c82 -7 78 1 57 -117 -34 -190 -231 -476 -329 -476 -24 0 -54 56 -61
115 -8 60 13 182 45 267 16 44 34 68 79 107 32 28 69 66 82 86 16 23 29 33 39
29 8 -3 48 -8 88 -11z m4879 -595 c167 -265 409 -607 582 -822 173 -214 226
-273 438 -488 91 -93 164 -168 161 -168 -3 0 -67 27 -144 61 -76 33 -181 79
-233 101 -137 58 -204 93 -305 161 -284 191 -486 503 -597 921 -37 139 -75
347 -84 451 l-6 80 32 -50 c17 -27 88 -139 156 -247z m193 28 c173 -143 395
-364 504 -501 146 -186 267 -402 460 -823 91 -197 91 -197 -143 44 -309 318
-551 621 -838 1049 -96 144 -303 472 -303 480 0 9 148 -106 320 -249z m-2609
46 c73 -78 150 -197 183 -280 9 -24 21 -77 27 -119 6 -41 21 -107 34 -147 l24
-71 -46 50 c-55 59 -125 165 -154 232 -43 98 -157 413 -149 413 4 0 41 -35 81
-78z m5435 -107 c100 -16 249 -56 334 -90 251 -101 496 -283 662 -491 63 -79
190 -264 182 -264 -3 0 -39 28 -81 61 -231 189 -575 369 -858 449 -108 30
-316 72 -425 85 -286 34 -681 -14 -919 -110 -35 -14 -65 -24 -68 -22 -8 9 192
162 274 210 146 86 347 154 518 176 100 13 288 11 381 -4z m-71 -304 c305 -52
547 -137 825 -291 91 -51 277 -178 350 -240 l35 -30 -97 35 c-192 68 -335 95
-608 115 -278 20 -459 51 -805 135 -223 55 -557 119 -675 130 -36 3 -81 8
-100 11 l-35 6 27 14 c45 24 228 82 313 99 236 49 538 55 770 16z m-4185 -291
c184 -29 357 -118 502 -258 135 -130 136 -168 3 -164 -132 3 -202 38 -270 132
-89 123 -177 201 -299 266 -55 30 -58 34 -31 34 17 0 59 -5 95 -10z m-85 -62
c76 -38 138 -84 196 -145 100 -106 145 -180 195 -323 29 -86 33 -108 24 -128
-9 -21 -15 -23 -47 -17 -57 10 -149 61 -176 97 -14 18 -39 66 -57 107 -52 119
-99 199 -187 316 -46 60 -83 117 -83 126 0 15 5 16 38 7 20 -5 64 -23 97 -40z
m-84 -122 c82 -104 173 -268 209 -376 27 -79 28 -156 3 -229 -39 -115 -72 -97
-192 109 -79 134 -131 329 -131 486 0 147 4 147 111 10z m-153 -63 c5 -83 27
-182 68 -298 45 -127 49 -155 33 -212 -15 -54 -101 -188 -126 -197 -11 -4 -22
-1 -29 8 -33 45 -39 400 -10 551 21 108 47 205 55 205 3 0 8 -26 9 -57z m5296
-1653 c4 -135 8 -258 10 -275 2 -16 7 -75 10 -130 16 -248 18 -266 61 -570 79
-550 215 -1051 394 -1454 28 -62 51 -115 51 -116 0 -9 -351 355 -434 450 -280
319 -399 611 -413 1021 -14 377 78 808 254 1202 31 67 57 121 58 120 1 -2 5
-113 9 -248z m159 -80 c264 -664 354 -986 397 -1415 13 -126 34 -1062 24
-1052 -8 8 -123 282 -160 380 -86 230 -176 554 -233 834 -23 112 -85 527 -96
638 -4 39 -8 79 -10 90 -1 11 -6 74 -10 140 -4 66 -9 122 -10 125 -2 3 -6 102
-10 220 -4 118 -8 234 -9 257 -3 37 2 59 10 51 1 -2 49 -122 107 -268z m2085
-1790 c167 -24 291 -64 467 -151 225 -111 395 -254 557 -469 163 -217 286
-526 317 -800 12 -107 24 -416 15 -407 -3 3 -23 57 -44 121 -195 581 -575
1093 -1053 1420 -75 52 -245 149 -322 185 -71 34 -252 101 -273 102 -14 0 -14
2 3 9 25 11 234 5 333 -10z m-281 -56 c371 -123 757 -399 1055 -754 148 -176
312 -442 403 -653 51 -117 125 -318 125 -338 0 -6 -33 34 -74 88 -94 125 -258
286 -456 449 -196 161 -378 345 -549 555 -198 241 -427 502 -529 602 -49 48
-88 87 -86 87 2 0 52 -16 111 -36z m895 -2151 c256 -340 416 -712 463 -1077
33 -258 15 -556 -50 -826 -30 -123 -136 -450 -145 -445 -3 2 -7 91 -8 197 -1
106 -4 204 -7 218 -2 14 -9 95 -15 180 -45 646 -221 1434 -429 1921 l-40 94
78 -82 c44 -45 112 -126 153 -180z m-214 115 c118 -290 237 -710 311 -1098 65
-346 117 -849 119 -1160 l1 -185 -42 115 c-53 142 -92 229 -172 390 -196 392
-269 617 -305 935 -12 113 -18 530 -9 695 3 69 10 190 14 270 10 205 14 207
83 38z"/>
<path d="M15753 23363 c-33 -6 -81 -59 -88 -97 -8 -42 15 -99 50 -122 15 -10
45 -17 72 -17 41 0 51 5 80 36 27 30 33 45 33 81 0 78 -69 134 -147 119z"/>
<path d="M17585 21041 c-88 -39 -98 -173 -15 -216 86 -44 180 13 180 110 0 51
-51 105 -105 110 -22 3 -49 1 -60 -4z"/>
<path d="M19980 20919 c-38 -15 -78 -58 -91 -96 -35 -106 70 -213 180 -183 48
13 98 66 107 116 20 108 -95 203 -196 163z m111 -78 c20 -20 29 -39 29 -61 0
-22 -9 -41 -29 -61 -20 -20 -39 -29 -61 -29 -22 0 -41 9 -61 29 -20 20 -29 39
-29 61 0 22 9 41 29 61 20 20 39 29 61 29 22 0 41 -9 61 -29z"/>
<path d="M21763 18601 c-41 -26 -53 -49 -53 -105 0 -36 6 -52 29 -78 26 -30
35 -33 84 -33 64 0 99 24 117 81 34 101 -86 192 -177 135z"/>
<path d="M20497 18436 c-68 -25 -97 -66 -97 -139 0 -78 68 -147 145 -147 17 0
46 8 65 18 109 54 106 213 -4 263 -48 22 -59 22 -109 5z m102 -73 c17 -16 31
-35 32 -43 7 -65 -28 -110 -86 -110 -117 0 -114 176 2 179 13 1 36 -11 52 -26z"/>
<path d="M21504 15266 c-75 -33 -99 -125 -48 -185 66 -79 191 -46 210 55 17
90 -79 166 -162 130z"/>
<path d="M21990 13182 c-75 -38 -104 -137 -59 -209 55 -89 195 -90 249 -1 58
95 -14 228 -125 228 -16 0 -46 -8 -65 -18z m111 -52 c10 -6 25 -23 33 -39 30
-57 -16 -131 -82 -131 -26 0 -71 37 -83 67 -11 29 10 86 38 102 23 13 69 14
94 1z"/>
<path d="M22580 12180 c-2 -102 -4 -201 -5 -221 -1 -19 -5 -96 -9 -170 -49
-923 -261 -1956 -589 -2869 -414 -1148 -987 -2186 -1747 -3165 -86 -110 -182
-238 -215 -285 -479 -691 -1169 -1378 -1938 -1929 -704 -504 -1427 -901 -2312
-1268 -336 -139 -595 -237 -595 -225 0 4 9 31 20 60 12 32 20 76 20 115 0 274
-359 378 -749 217 -41 -16 -75 -29 -76 -28 -2 2 4 41 12 88 21 124 12 302 -20
402 -32 99 -66 156 -123 206 -178 157 -432 41 -583 -265 -22 -44 -49 -113 -61
-154 -12 -41 -24 -80 -26 -87 -2 -8 -34 19 -81 68 -116 123 -244 206 -378 245
-77 23 -194 17 -251 -13 -208 -107 -205 -437 8 -748 l56 -81 -92 -7 c-218 -15
-397 -85 -507 -198 -108 -111 -119 -262 -28 -379 l28 -36 -122 -7 c-186 -10
-975 -8 -1032 3 -129 25 -281 104 -387 202 l-47 44 -6 110 c-5 70 -14 128 -26
161 -35 92 -62 93 -111 7 -17 -30 -37 -57 -45 -60 -7 -3 -38 5 -68 17 -29 12
-59 19 -65 15 -30 -19 26 -132 94 -192 43 -37 125 -73 168 -73 11 0 50 -26 86
-58 84 -73 117 -96 200 -138 l67 -34 -55 5 c-30 3 -140 12 -245 20 -104 9
-224 20 -265 25 -41 5 -96 11 -122 14 -116 14 -143 18 -150 24 -3 4 -22 57
-42 117 -107 323 -321 644 -536 806 -123 92 -277 159 -447 193 -76 16 -545 86
-571 86 -8 0 19 -37 60 -83 41 -45 121 -138 178 -207 311 -375 564 -573 985
-773 234 -111 263 -127 225 -122 -112 15 -326 52 -545 96 -642 128 -1282 319
-1918 571 -168 67 -181 74 -241 132 -73 71 -122 144 -159 237 l-27 66 61 119
c43 85 61 131 62 163 3 62 -17 72 -85 42 -80 -35 -88 -33 -127 27 -18 28 -39
52 -47 52 -7 0 -20 -20 -30 -45 -38 -102 1 -243 91 -324 29 -26 48 -54 64
-100 27 -74 68 -147 118 -207 l35 -43 -114 50 c-62 28 -218 102 -346 164 -215
105 -232 116 -228 137 19 87 29 209 29 373 1 257 -17 403 -73 605 -39 139 -62
196 -122 311 -101 194 -240 345 -433 472 -79 52 -408 220 -656 335 l-87 40 54
-112 c29 -61 106 -248 172 -416 66 -168 145 -358 176 -422 138 -288 303 -526
664 -956 84 -100 150 -182 147 -182 -7 0 -193 103 -320 178 -624 366 -1163
755 -1698 1222 l-196 172 -46 91 c-49 101 -90 244 -98 350 l-5 67 74 92 c98
122 133 228 76 228 -10 0 -45 -9 -78 -20 l-59 -20 -17 22 c-10 13 -18 28 -18
34 0 19 -41 65 -52 58 -5 -4 -19 -25 -29 -48 -37 -82 -18 -218 44 -299 19 -25
25 -49 31 -117 7 -92 35 -210 67 -292 11 -28 18 -52 16 -55 -5 -5 -569 568
-600 610 -13 17 -50 104 -82 192 -117 324 -215 548 -311 712 -130 222 -238
340 -522 569 -123 99 -261 223 -341 303 -113 115 -133 131 -127 106 3 -16 13
-95 21 -175 38 -359 99 -583 227 -831 192 -375 567 -700 1017 -883 57 -23 82
-45 319 -287 292 -298 486 -482 716 -678 88 -75 173 -148 190 -164 l31 -27
-60 21 c-94 34 -327 148 -561 275 -363 196 -391 208 -834 349 -182 58 -371
153 -485 244 -27 22 -51 39 -52 37 -2 -2 11 -43 28 -92 43 -124 146 -336 206
-425 218 -321 528 -522 902 -584 132 -22 322 -16 466 15 109 24 271 83 349
128 l50 29 122 -97 c155 -124 398 -305 536 -400 59 -41 106 -75 105 -76 -1 -1
-27 2 -57 7 -30 4 -88 8 -128 8 -57 1 -80 6 -102 21 -69 49 -190 65 -256 34
-46 -22 -41 -41 19 -79 52 -33 50 -22 30 -128 -5 -23 -2 -27 18 -27 41 1 103
35 166 94 l61 56 70 0 c124 0 238 -26 307 -70 33 -21 128 -81 210 -133 862
-543 1777 -953 2771 -1243 224 -65 653 -173 777 -195 72 -13 89 -29 32 -29
-50 0 -169 -26 -256 -55 -63 -22 -78 -24 -109 -13 -56 18 -160 13 -218 -12
-57 -24 -107 -72 -99 -93 3 -8 37 -22 76 -32 39 -9 71 -20 72 -24 0 -3 2 -30
4 -59 4 -68 14 -78 53 -58 43 22 92 83 131 162 19 38 39 72 45 77 24 16 165
56 240 67 141 21 293 14 527 -24 118 -19 234 -38 259 -41 25 -3 56 -8 70 -10
47 -9 385 -45 555 -59 291 -25 464 -31 955 -31 340 0 470 -3 455 -11 -60 -31
-302 -130 -460 -189 -237 -88 -350 -143 -558 -268 -260 -157 -358 -201 -513
-228 -35 -6 -64 -14 -64 -18 0 -7 148 -66 248 -98 156 -49 374 -69 528 -48
440 61 771 337 904 754 l38 116 50 3 c42 3 59 -2 103 -30 29 -18 95 -46 147
-64 l93 -31 -68 -55 c-60 -49 -77 -57 -138 -67 -83 -15 -142 -39 -197 -82 -72
-58 -114 -152 -70 -161 9 -2 46 0 82 4 36 5 70 6 76 4 7 -3 20 -26 30 -53 24
-66 41 -85 65 -72 46 24 92 150 102 284 5 65 3 63 121 151 35 27 65 42 75 39
9 -3 51 -6 94 -7 42 -1 77 -4 77 -6 0 -2 -20 -32 -45 -66 -140 -197 -204 -449
-151 -603 93 -277 481 -236 774 83 l68 74 24 -83 c63 -218 201 -406 350 -476
73 -34 175 -36 235 -4 96 50 171 164 202 306 20 88 20 295 0 384 l-13 62 35
-16 c168 -72 292 -98 431 -90 112 6 180 25 246 70 88 59 129 160 112 275 -25
161 -180 342 -393 458 l-76 41 68 38 c98 53 195 128 256 196 l52 58 270 91
c1226 414 2336 999 3212 1695 597 474 1133 1031 1523 1583 46 64 143 194 215
287 802 1038 1368 2083 1750 3230 287 859 444 1650 500 2515 13 205 17 896 5
965 -4 24 -8 -36 -10 -145z m-20254 -5545 c281 -549 664 -1094 1050 -1492 55
-57 97 -103 94 -103 -3 0 -66 30 -140 68 -631 316 -978 811 -1060 1509 -5 48
-12 104 -15 123 -7 45 0 35 71 -105z m319 -169 c275 -224 389 -346 502 -536
101 -169 188 -361 304 -672 59 -158 67 -188 50 -188 -5 0 -53 47 -108 103
-313 326 -618 738 -879 1189 -73 126 -214 389 -214 399 0 3 33 -26 73 -63 39
-38 162 -142 272 -232z m3012 -1859 c336 -166 437 -232 574 -374 153 -158 251
-341 319 -595 54 -204 63 -289 63 -553 0 -132 -3 -249 -6 -260 -3 -11 -6 -32
-6 -47 -2 -50 -16 -30 -50 70 -255 732 -616 1350 -1050 1795 -36 37 -62 67
-58 67 4 0 100 -46 214 -103z m-117 -62 c255 -276 448 -557 645 -938 52 -100
118 -239 149 -308 62 -143 208 -530 203 -536 -6 -6 -357 419 -474 574 -195
258 -338 514 -457 818 -33 83 -94 237 -136 343 l-78 193 47 -43 c25 -24 71
-70 101 -103z m-2275 -79 c405 -127 445 -145 830 -351 138 -74 312 -163 388
-199 l138 -64 -66 -7 c-131 -14 -399 17 -572 66 -270 78 -506 194 -728 360
-127 94 -248 202 -334 297 l-73 82 133 -69 c90 -45 184 -84 284 -115z m-120
-151 c285 -229 621 -392 957 -464 122 -26 317 -44 419 -39 44 2 76 1 72 -2 -5
-4 -38 -19 -75 -33 -325 -128 -701 -111 -1010 43 -192 96 -392 273 -511 452
-48 72 -157 285 -181 352 -3 10 48 -39 115 -108 67 -69 163 -160 214 -201z
m11047 -1231 c54 -38 103 -110 129 -194 39 -123 36 -372 -7 -493 -8 -24 -38
-65 -69 -97 -29 -30 -78 -91 -107 -134 -69 -102 -74 -106 -135 -78 -72 32
-135 45 -208 40 l-65 -4 -30 72 c-79 191 -86 327 -24 509 61 181 177 334 297
391 74 35 159 31 219 -12z m-1083 -225 c172 -39 449 -277 465 -401 3 -18 8
-55 11 -83 4 -27 18 -84 31 -126 26 -83 35 -132 25 -146 -3 -5 -30 -22 -59
-38 -49 -27 -136 -108 -159 -148 -9 -17 -14 -17 -52 -7 -23 6 -69 29 -102 50
-33 21 -79 46 -102 54 -23 9 -64 24 -92 34 -55 20 -115 85 -186 203 -104 173
-140 371 -89 486 54 122 147 158 309 122z m-4147 -199 c317 -47 436 -84 597
-188 195 -125 393 -380 515 -662 31 -72 76 -198 76 -214 0 -5 -73 62 -162 151
-305 301 -550 505 -843 699 -105 70 -287 179 -380 228 -41 21 -34 20 197 -14z
m-17 -122 c361 -216 758 -537 1110 -897 l60 -62 -162 75 c-511 235 -741 409
-1090 828 -67 81 -127 149 -133 153 -5 3 -10 10 -10 16 0 12 97 -37 225 -113z
m6043 -106 c74 -28 116 -64 142 -117 84 -173 -87 -427 -387 -577 l-63 -31
-200 -1 -199 -2 -12 55 c-16 77 -54 153 -105 210 l-42 47 32 61 c111 207 285
326 544 373 79 15 230 5 290 -18z m-1047 -382 c121 -37 223 -141 260 -263 60
-195 -32 -402 -219 -490 -59 -28 -77 -32 -157 -32 -110 0 -155 13 -237 68
-209 140 -237 439 -58 617 109 110 262 147 411 100z m-896 -55 c81 -22 167
-64 253 -126 l72 -53 -7 -50 c-7 -45 -7 -122 0 -225 2 -31 -4 -39 -45 -70
-212 -161 -399 -195 -679 -121 -131 34 -264 128 -308 215 -109 219 172 440
564 444 52 1 116 -6 150 -14z m1647 -375 c106 -39 210 -109 303 -204 97 -98
138 -166 155 -255 53 -278 -346 -379 -724 -183 -59 31 -74 45 -111 102 -23 36
-74 100 -114 143 -39 42 -71 82 -71 88 0 6 16 29 36 51 43 48 89 143 104 214
13 60 17 63 145 73 102 8 209 -3 277 -29z m-1159 -321 c23 -17 59 -40 80 -50
l37 -19 0 -68 c0 -83 -31 -226 -65 -300 -69 -149 -270 -328 -433 -384 -232
-79 -387 38 -369 277 10 140 100 337 208 458 39 44 57 56 116 75 39 12 108 45
154 73 46 28 100 54 119 58 33 6 37 4 73 -41 21 -27 57 -62 80 -79z m-1352 -3
c-120 -151 -336 -324 -520 -415 -165 -83 -350 -144 -526 -174 -135 -24 -150
-26 -280 -33 -130 -7 -141 1 -45 31 81 26 185 80 376 196 198 120 298 169 489
239 185 68 371 144 469 192 44 21 82 36 84 33 2 -2 -19 -33 -47 -69z m53 -18
c-87 -264 -272 -485 -511 -610 -283 -148 -602 -165 -943 -50 l-85 29 175 6
c202 7 352 34 545 98 325 108 639 322 800 546 17 23 32 40 34 38 1 -2 -5 -28
-15 -57z m1912 -88 c133 -132 183 -232 205 -410 39 -316 -82 -569 -272 -570
-157 -1 -346 217 -418 481 -27 97 -26 128 4 216 13 40 29 112 36 160 6 49 17
100 24 114 13 24 17 25 72 21 65 -5 161 16 221 47 20 11 40 19 44 18 5 -1 42
-36 84 -77z"/>
<path d="M58 8979 c-42 -24 -16 -109 73 -231 56 -77 89 -136 89 -158 0 -9 -34
-49 -76 -90 -42 -41 -89 -93 -105 -114 -31 -41 -38 -86 -16 -104 34 -29 187
-19 422 28 376 74 391 75 481 26 334 -183 636 -462 837 -772 70 -109 182 -335
202 -409 18 -63 19 -66 44 -60 14 4 28 8 30 11 2 2 -6 40 -18 85 -12 45 -20
83 -17 86 3 3 -1 17 -8 32 -8 14 -23 73 -35 131 -39 195 -54 355 -54 587 l-1
222 92 93 c152 154 221 261 247 385 16 76 8 109 -30 119 -31 8 -56 2 -169 -42
-68 -27 -95 -33 -110 -26 -12 5 -42 45 -68 89 -78 132 -101 140 -145 52 -80
-158 -44 -409 85 -598 l39 -56 -3 -195 c-1 -107 1 -235 6 -285 12 -137 22
-219 27 -227 2 -5 2 -8 0 -8 -2 0 -26 33 -52 73 -216 325 -504 590 -852 783
-82 45 -98 59 -142 120 -106 151 -262 295 -403 372 -135 74 -315 114 -370 81z"/>
<path d="M2724 7261 c-63 -39 -70 -129 -14 -186 26 -25 38 -30 80 -30 42 0 54
5 81 31 102 103 -23 261 -147 185z"/>
<path d="M4675 5386 c-46 -21 -78 -62 -85 -109 -8 -57 5 -96 47 -134 87 -79
225 -30 240 86 15 114 -101 204 -202 157z m98 -58 c34 -17 46 -39 47 -80 0
-28 -7 -42 -31 -62 -17 -14 -39 -26 -50 -26 -34 0 -76 28 -88 58 -32 76 49
149 122 110z"/>
<path d="M13285 3341 c-52 -32 -68 -58 -73 -116 -4 -43 0 -61 18 -90 77 -124
270 -70 270 76 0 112 -124 187 -215 130z m130 -66 c23 -22 30 -46 26 -85 -1
-8 -16 -28 -33 -43 -25 -24 -36 -28 -62 -23 -75 15 -104 99 -51 151 33 34 87
34 120 0z"/>
<path d="M7985 2922 c-60 -13 -102 -76 -92 -139 16 -97 138 -132 206 -59 43
45 36 135 -13 175 -19 16 -74 28 -101 23z"/>
<path d="M5325 2530 c-57 -23 -89 -102 -65 -160 35 -85 162 -96 211 -18 24 40
21 108 -7 140 -35 39 -96 56 -139 38z"/>
<path d="M11583 2170 c-51 -11 -83 -38 -104 -86 -70 -156 144 -283 250 -148
81 104 -17 261 -146 234z m95 -86 c50 -57 10 -144 -67 -144 -32 0 -44 6 -65
31 -14 17 -26 39 -26 49 0 35 24 73 55 86 39 17 74 10 103 -22z"/>
<path d="M8455 1814 c-113 -31 -370 -59 -625 -69 -312 -12 -393 -22 -690 -85
-297 -63 -479 -70 -675 -25 -26 5 -19 -5 57 -77 212 -206 453 -335 726 -389
92 -19 129 -21 262 -16 170 6 262 24 395 77 247 98 448 274 582 509 24 42 43
79 43 83 0 11 -15 9 -75 -8z m-75 -89 c-98 -71 -279 -164 -406 -208 -310 -108
-682 -125 -1029 -49 -90 20 -299 85 -322 100 -7 4 41 9 106 9 142 1 217 12
461 64 196 42 380 64 625 74 177 7 441 31 540 49 39 7 77 14 85 15 8 0 -19
-24 -60 -54z m24 -62 c-177 -251 -439 -417 -738 -469 -134 -24 -358 -14 -486
20 -167 45 -286 99 -430 196 -76 52 -199 150 -187 150 2 0 30 -11 61 -25 76
-33 271 -90 381 -109 154 -28 244 -35 410 -31 298 5 540 62 776 181 85 42 221
128 240 150 6 8 14 12 17 10 2 -3 -17 -36 -44 -73z"/>
<path d="M13322 279 c-90 -58 -83 -208 12 -253 101 -48 216 21 216 129 0 112
-133 184 -228 124z m113 -43 c76 -32 76 -130 0 -162 -39 -16 -69 -8 -99 25
-45 50 -10 134 62 150 1 1 18 -5 37 -13z"/>
</g>
</svg>
